<?xml version="1.0" encoding="utf-8"?>
<!-- Generator: Adobe Illustrator 19.1.0, SVG Export Plug-In . SVG Version: 6.00 Build 0)  -->
<!DOCTYPE svg PUBLIC "-//W3C//DTD SVG 1.1//EN" "http://www.w3.org/Graphics/SVG/1.1/DTD/svg11.dtd">
<svg version="1.1" id="Layer_1" xmlns="http://www.w3.org/2000/svg" xmlns:xlink="http://www.w3.org/1999/xlink" x="0px" y="0px"
	 viewBox="-290 384 30 26" style="enable-background:new -290 384 30 26;" xml:space="preserve">
<style type="text/css">
	.st0{opacity:0.8;enable-background:new    ;}
	.st1{opacity:0.65;}
	.st2{fill:#F2F2F2;}
</style>
<g class="st0">
	<rect x="-290" y="384" width="30" height="26"/>
</g>
<g class="st1">
	<path class="st2" d="M-267.3,388.9c0,0.2,0,0.4,0,0.5c0,4.1,0,8.3,0,12.4c0,2.1-2.4,4.1-4.4,3.6c-1.4-0.3-2.1-1.4-1.7-2.8
		c0.5-1.7,1.8-2.6,3.5-2.9c0.2,0,0.3,0,0.5-0.1c0,0,0,0,0.1-0.1c0-1.6,0-3.3,0-5.1c-0.7,0.1-1.4,0.2-2.1,0.3c-2,0.3-4,0.6-6,0.8
		c-0.4,0.1-0.5,0.2-0.5,0.6c0,2-0.1,4.1,0,6.1c0.1,2.2-2.2,3.9-3.9,3.9c-1.6,0-2.6-1.3-2.2-2.9c0.4-1.4,1.8-2.7,3.3-2.8
		c0.6,0,0.7-0.2,0.7-0.8c0-2.8,0-5.6,0-8.4c0-0.6,0.1-0.9,0.8-1c3.9-0.5,7.8-1.1,11.7-1.6C-267.4,388.9-267.4,388.9-267.3,388.9z"/>
</g>
</svg>
