<svg xmlns="http://www.w3.org/2000/svg" viewBox="0 0 598.39 78.12"><title>shield-wordmark-black-and-white</title><path d="M12,6.4c0-.72-0.48-0.72-1-0.72V5.4c0.59,0,1.2,0,1.79,0s1.21,0,1.8,0V5.68c-0.58,0-1,0-1,.72v3.89c0,0.72.47,0.72,1,.72v0.28c-0.59,0-1.2,0-1.8,0s-1.2,0-1.79,0V11c0.56,0,1,0,1-.72V6.4h0Z" transform="translate(-6 -4)" style="fill:#fff"/><path d="M28.43,5.52A1.94,1.94,0,0,1,27.17,7.2C28.42,8,28.7,8.76,28.7,9.35c0,0.75-.58,2-2.71,2-1.74,0-2.41-1-2.41-1.79a2.38,2.38,0,0,1,1.59-1.91,2.37,2.37,0,0,1-1.07-1.73A2.1,2.1,0,0,1,26.36,4a1.82,1.82,0,0,1,2.07,1.52h0Zm-4,4a1.42,1.42,0,0,0,1.6,1.45c1.14,0,1.51-.58,1.51-1.06,0-.75-1.06-1.34-2-1.93a1.81,1.81,0,0,0-1.1,1.54h0ZM25.2,5.37c0,0.44.28,0.78,1.52,1.52a1.25,1.25,0,0,0,.86-1.28,1.15,1.15,0,0,0-1.24-1.18,1,1,0,0,0-1.14.93h0Z" transform="translate(-6 -4)" style="fill:#fff"/><path d="M42.45,5.52A1.94,1.94,0,0,1,41.19,7.2C42.43,8,42.71,8.76,42.71,9.35c0,0.75-.58,2-2.71,2-1.74,0-2.41-1-2.41-1.79a2.38,2.38,0,0,1,1.59-1.91,2.37,2.37,0,0,1-1.07-1.73A2.1,2.1,0,0,1,40.38,4a1.82,1.82,0,0,1,2.07,1.52h0Zm-4,4a1.42,1.42,0,0,0,1.6,1.45c1.14,0,1.51-.58,1.51-1.06,0-.75-1.06-1.34-2-1.93a1.81,1.81,0,0,0-1.1,1.54h0Zm0.75-4.11c0,0.44.28,0.78,1.52,1.52a1.25,1.25,0,0,0,.86-1.28,1.15,1.15,0,0,0-1.24-1.18,1,1,0,0,0-1.14.93h0Z" transform="translate(-6 -4)" style="fill:#fff"/><path d="M56.79,8.32a2.81,2.81,0,0,1-2.71,3,2.73,2.73,0,0,1-2.6-3,2.88,2.88,0,0,1,2.61-3.1c1.46,0,2.69,1,2.69,3h0ZM53,7.84c0,0.79.16,3.08,1.23,3.08,0.56,0,1-.4,1-1.91S55,5.71,54,5.71c-0.7,0-.95.79-0.95,2.13h0Z" transform="translate(-6 -4)" style="fill:#fff"/><path d="M55,26.72L14.05,44.1A45.35,45.35,0,0,0,16.55,51c3.86,8.28,11,13.32,19.17,14A25.77,25.77,0,0,0,48,62.93c6.52-2.77,10.85-7.38,12.65-14.51a59,59,0,0,0,1.1-11.53c0-5.25.09-10.57,0.09-17.5A178,178,0,0,0,42.48,18,25,25,0,0,1,55,26.72h0Z" transform="translate(-6 -4)" style="fill:#fff"/><path d="M13.66,41.06L40.48,29.74C36.89,23.3,30,19.3,22.06,22.68s-9.08,11-8.4,18.38h0Z" transform="translate(-6 -4)" style="fill:#fff"/><path d="M6.11,37.87a27.62,27.62,0,0,1,16-18.16A37.26,37.26,0,0,1,27.22,18c-7.84.19-15.35,0.67-21.22,1.41,0,6.46.09,12.24,0.09,17.47,0,0.35,0,.67,0,1h0Z" transform="translate(-6 -4)" style="fill:#fff"/><path d="M42.81,71.23c-11.58,2.89-21.54.28-28.32-5.55A47.07,47.07,0,0,0,33.93,82.12a44.53,44.53,0,0,0,19.41-16,28.07,28.07,0,0,1-10.54,5.11h0Z" transform="translate(-6 -4)" style="fill:#fff"/><path d="M447.72,43.92c0-10.46-7.65-18.42-17.71-18.42C418.19,25.5,413,35.7,413,43.74c0,9.62,7.1,18.36,18.12,18.36,9.3,0,16.64-8,16.64-18.18h0Zm-5.44,0c0,10.63-2.6,16.85-11.5,16.85C419.9,60.77,418.4,50,418.4,43.86c0-13.55,4.41-17,11.79-17,10,0,12.09,9.28,12.09,17h0Z" transform="translate(-6 -4)" style="fill:#fff"/><path d="M454.42,60.23c2.46,0,2.93-.52,2.93-3.53V31.19c0-3-.47-3.52-2.87-3.52H453V26.2c2.31,0.06,4.63.18,6.94,0.18s4.63-.12,6.94-0.18v1.46h-1.83c-2.46,0-2.93.52-2.93,3.52V57.78c0,1.51.58,2,2.39,2h5.14c4.1,0,5.32-1.85,7.06-5.41h1.36l-2.92,7.23c-3.28-.12-7.89-0.18-11.17-0.18q-5.56,0-11.11.19v-1.4h1.53Z" transform="translate(-6 -4)" style="fill:#fff"/><path d="M573.53,49.61c-2.46,0-2.93.52-2.93,3.52v8.28a72.08,72.08,0,0,1-9.68.68c-17.33,0-22-10.88-22-17.95A18.93,18.93,0,0,1,544.4,31c3.86-3.8,8.38-5.42,15.32-5.42,1,0,5.65.3,6.72,0.3a10.44,10.44,0,0,0,3.06-.3h0.85v7.7H569a7.46,7.46,0,0,0-.87-3.61C567.1,28,564,27,559.55,27c-12.31,0-15.18,7-15.18,16.79,0,10.71,5.8,16.85,16,16.85,4.19,0,5.43-.78,5.43-2.57V53.14c0-3-.47-3.52-2.87-3.52h-2.6v-1.4c2.53,0.06,5.07.18,7.6,0.18,2.37,0,4.75-.12,7.12-0.19v1.4h-1.53Z" transform="translate(-6 -4)" style="fill:#fff"/><path d="M534.22,54.33h1.34l-2.66,7.11c-4.1-.07-8.44-0.18-12.55-0.18-0.71,0-9.4.18-12.31,0.18h-0.22V60h1.35c2.4,0,2.87-.51,2.87-3.52V31c0-3-.47-3.53-2.87-3.53h-1.41V26q6.65,0.18,13.31.18c3.91,0,7.93-.05,11.84-0.19l0.25,7.41h-1.33c-0.26-3.84-.73-5.59-4.85-5.59H516.82V42h9.67c2.64,0,3-1.59,3.12-3.93h1.32v10.2h-1.33c-0.1-2.57-.72-4.7-3.71-4.7h-9.08V57c0,2,.68,2.69,2.69,2.69h8.05c3.87,0,4.84-2.12,6.65-5.35h0Z" transform="translate(-6 -4)" style="fill:#fff"/><path d="M603,54.33h1.34l-2.66,7.11c-4.1-.07-8.44-0.18-12.55-0.18-0.71,0-9.4.18-12.31,0.18h-0.22V60H578c2.4,0,2.87-.51,2.87-3.52V31c0-3-.47-3.53-2.87-3.53h-1.41V26q6.65,0.18,13.31.18c3.91,0,7.93-.05,11.83-0.19L602,33.42h-1.33c-0.26-3.84-.74-5.59-4.85-5.59H585.65V42h9.67c2.64,0,3-1.59,3.12-3.93h1.32v10.2h-1.33c-0.09-2.57-.72-4.7-3.71-4.7h-9.08V57c0,2,.67,2.69,2.69,2.69h8.05c3.87,0,4.84-2.12,6.65-5.35h0Z" transform="translate(-6 -4)" style="fill:#fff"/><path d="M482.6,60.23c2.46,0,2.93-.52,2.93-3.53V31.19c0-3-.47-3.52-2.87-3.52h-1.47V26.2c2.31,0.06,4.63.18,6.94,0.18s4.63-.12,6.94-0.18v1.46h-1.83c-2.46,0-2.93.52-2.93,3.52V57.78c0,1.51.58,2,2.39,2h5.14c4.1,0,5.32-1.85,7.06-5.41h1.36l-2.92,7.23c-3.28-.12-7.89-0.18-11.17-0.18q-5.56,0-11.11.19v-1.4h1.53Z" transform="translate(-6 -4)" style="fill:#fff"/><path d="M408,20.08v8.8h-1.48c-0.09-6.73-5.67-7.25-11-7.25-12,0-17.18,5.68-17.18,18.83s6.48,20.35,18.14,20.35c6,0,8.61-1.91,10.69-7.53h1.49L406,62.09c-2.85.19-5.23,0.43-8.11,0.43-8.8,0-15.36-2.15-19.77-6.62a21.16,21.16,0,0,1-6-14.93c0-8,5.24-20.87,22.39-20.87,2.55,0,6,.34,6.49.34,1.33,0,5.06.17,6.17-.34H408Z" transform="translate(-6 -4)" style="fill:#fff"/><path d="M314.32,43.7c0-10.45-7.64-18.4-17.69-18.4-11.81,0-17,10.19-17,18.22,0,9.61,7.09,18.34,18.1,18.34,9.29,0,16.62-8,16.62-18.16h0Zm-5.43,0c0,10.62-2.6,16.83-11.48,16.83-10.88,0-12.37-10.8-12.37-16.89,0-13.53,4.4-16.95,11.78-16.95,10,0,12.08,9.27,12.08,17h0Z" transform="translate(-6 -4)" style="fill:#fff"/><path d="M249.42,61.3V60.06H247.3c-1.93,0-3.3-.72-4.87-2.88-0.77-1.07-3.56-5.34-6.35-9.73L233.29,43c4.58-2.93,6.33-5.35,6.33-8.8,0-5.47-4.81-8.9-12.17-8.9-3.52.08-8.57,0.42-12,.79v1.37h1.41c2.39,0,2.87.51,2.87,3.52V56.48c0,3-.47,3.52-2.93,3.52h-1.29v1.4c2.39-.06,4.78-0.18,7.17-0.18,2.21,0,4.43.12,6.64,0.18V60H227.4c-2.39,0-2.87-.51-2.87-3.52V44.39c0.59,0,1.91-.17,2.21-0.17,1.92,0,2.37.58,2.43,0.68,0.42,0.59,3.32,5.52,5,8.31l1.6,2.67c0.75,1.24,1.34,2.23,1.88,3,1.6,2.36,2.7,3,5.74,3a39,39,0,0,0,6-.63h0ZM227.28,42.89a17.46,17.46,0,0,1-2.75-.2V26.79a16.62,16.62,0,0,1,2.21-.21c4.72,0,7.5,3.25,7.5,8.87,0,5.18-2.11,7.44-7,7.44h0Z" transform="translate(-6 -4)" style="fill:#fff"/><path d="M121.24,53.28h1.48l-3.06,8.15c-4.76-.08-9.88-0.21-14.65-0.21-0.83,0-10.86.21-14.23,0.21H90.56V59.88h1.53c2.8,0,3.35-.61,3.35-4.11V26.27c0-3.49-.56-4.11-3.35-4.11h-1.6V20.54c5.62,0.15,11.44.21,17.06,0.21,4,0,8.07-.07,12.11-0.21l0.29,8.5h-1.47c-0.3-4.45-.88-6.46-5.64-6.46H100.9V39h11.39c3.05,0,3.48-1.83,3.64-4.54h1.46V46.23h-1.47c-0.11-3-.87-5.43-4.33-5.43H100.9V56.32c0,2.35.79,3.15,3.15,3.15h9.48c4.49,0,5.61-2.44,7.71-6.19h0Z" transform="translate(-6 -4)" style="fill:#fff"/><path d="M128.61,60c2.67,0,5.37-.09,5.48-3.29l0.53-23.82c0.06-4.11-1.22-5.48-5.07-5.48h-1.29V26h0.29c1.48,0.06,2.91.18,4.33,0.18,1.6,0,3.15-.12,4.69-0.18h0.21l13.63,29.25L163,26c1.75,0.06,3.51.18,5.26,0.18s3.51-.12,5.27-0.19v1.4h-1.11c-3,0-4.11,1-4.11,3.16l0.47,25.84c0.06,2.91.73,3.58,3.7,3.58h1.11v1.4c-2.27-.06-4.55-0.18-6.82-0.18-2.55,0-5.1.12-7.65,0.18V60h1.11c2.85,0,3.93-.9,3.88-3L163.7,29.54,150.75,62h-1.36l-13-27.72L136,56.84c-0.11,2.55.61,3.16,4.12,3.16h1.23v1.4c-2.09-.06-4.19-0.19-6.28-0.19s-4.48.1-6.64,0.19V60h0.22Z" transform="translate(-6 -4)" style="fill:#fff"/><path d="M207.66,54.29H209l-2.66,7.1c-4.09-.07-8.43-0.18-12.53-0.18-0.71,0-9.39.18-12.3,0.18h-0.22V60h1.35c2.39,0,2.87-.51,2.87-3.52V31c0-3-.47-3.52-2.87-3.52h-1.41V26q6.65,0.18,13.29.18c3.91,0,7.92-.05,11.82-0.19l0.25,7.4h-1.33c-0.26-3.84-.73-5.58-4.84-5.58H190.29V42h9.66c2.64,0,3-1.59,3.12-3.92h1.32V48.26h-1.33c-0.1-2.57-.72-4.69-3.71-4.69h-9.07V57c0,2,.67,2.69,2.69,2.69h8c3.87,0,4.83-2.11,6.64-5.35h0Z" transform="translate(-6 -4)" style="fill:#fff"/><path d="M273.2,26.13l0.25,7.59-1.27-.09c-0.31-4.68-3-6.82-7.58-6.82s-7.5,2.33-7.5,5.72c0,2.88,1.95,4.91,8.07,7.82,4.76,2.28,9.75,4.88,9.75,11s-5.12,10.5-12,10.5a26.28,26.28,0,0,1-5.33-.6,9.7,9.7,0,0,0-1.8-.29,2.27,2.27,0,0,0-1.39.47h-0.93l-1.37-7.74,1.28-.43c1.6,4.62,4.41,7.19,9.43,7.19s8.33-2.85,8.33-7c0-3.18-1.71-5-8.08-8.24-5.92-3-9.81-5.45-9.81-10.77s4.48-9,10.86-9A22.61,22.61,0,0,1,269,26a12.88,12.88,0,0,0,2.33.35,4.06,4.06,0,0,0,1.15-.24h0.73Z" transform="translate(-6 -4)" style="fill:#fff"/><path d="M319.41,60a3.27,3.27,0,0,0,3.22-3.4L322.16,30.3c-2.43-2.66-2.92-2.9-5.13-2.9h-0.22V26h0.29c1.24,0.06,2.49.18,3.74,0.18s2.78-.11,4-0.19l23,27.3-0.29-22c-0.06-2.85-1.15-3.94-3.94-3.94h-1.41V26c1.95,0.06,3.91.19,5.87,0.19s3.71-.12,5.57-0.19v1.4h-1.29c-2,0-3,.93-3,2.75l0.42,31.71h-0.86L324.1,32.32l0.35,24.33C324.5,59,325.52,60,328,60h2.06v1.4h-0.23c-3-.06-5.11-0.18-5.88-0.18-1.94,0-4.2.14-6.1,0.18V60h1.53Z" transform="translate(-6 -4)" style="fill:#fff"/></svg>