<?xml version="1.0" encoding="utf-8"?>
<!-- Generator: Adobe Illustrator 18.1.1, SVG Export Plug-In . SVG Version: 6.00 Build 0)  -->
<!DOCTYPE svg PUBLIC "-//W3C//DTD SVG 1.1//EN" "http://www.w3.org/Graphics/SVG/1.1/DTD/svg11.dtd">
<svg version="1.1" id="Layer_1" xmlns="http://www.w3.org/2000/svg" xmlns:xlink="http://www.w3.org/1999/xlink" x="0px" y="0px"
	 viewBox="0 0 246 25" enable-background="new 0 0 246 25" xml:space="preserve">
<g>
	<polygon fill="#CFD0D6" points="51.688,23.381 51.834,23.738 55.286,23.738 54.926,22.869 	"/>
	<polygon fill="#CFD0D6" points="54.417,21.642 51.183,22.154 51.391,22.66 54.627,22.148 	"/>
	<polygon fill="#CFD0D6" points="56.49,23.738 59.809,23.738 59.809,22.097 56.49,22.623 	"/>
	<polygon fill="#CFD0D6" points="53.909,20.416 50.679,20.927 50.887,21.431 54.119,20.921 	"/>
	<polygon fill="#CFD0D6" points="53.402,19.188 50.174,19.698 50.383,20.205 53.611,19.693 	"/>
	<polygon fill="#CFD0D6" points="58.813,0.505 56.49,0.505 56.49,16.65 59.809,16.124 59.809,6.678 66.64,15.038 70.225,14.47 	"/>
	<polygon fill="#CFD0D6" points="56.49,17.932 59.809,17.407 59.809,16.893 56.49,17.419 	"/>
	<polygon fill="#CFD0D6" points="56.49,19.239 59.809,18.714 59.809,18.176 56.49,18.7 	"/>
	<polygon fill="#CFD0D6" points="56.49,21.854 59.809,21.328 59.809,20.79 56.49,21.315 	"/>
	<polygon fill="#CFD0D6" points="56.49,20.546 59.809,20.021 59.809,19.483 56.49,20.008 	"/>
	<polygon fill="#CFD0D6" points="70.781,15.152 67.198,15.72 67.573,16.179 71.158,15.613 	"/>
	<path fill="#CFD0D6" d="M26.809,23.738c1.895,0,3.25-0.369,4.329-1.03l-6.515,1.03H26.809z"/>
	<polygon fill="#CFD0D6" points="52.904,17.989 49.682,18.5 49.878,18.977 53.102,18.467 	"/>
	<path fill="#CFD0D6" d="M30.626,10.694c1.096-1.029,1.826-2.555,1.826-4.149c0-1.726-0.729-3.319-1.925-4.414
		c-1.095-0.995-2.522-1.626-4.78-1.626h-7.899v23.232h1.911l12.602-1.991c1.282-1.254,2.083-3.017,2.083-4.945
		C34.444,14.179,32.817,11.789,30.626,10.694z M21.167,3.657h3.983c1.859,0,2.655,0.366,3.187,0.963
		c0.498,0.53,0.796,1.228,0.796,2.025c0,0.795-0.299,1.494-0.796,2.024c-0.531,0.597-1.328,0.963-3.187,0.963h-3.983V3.657z
		 M30.029,19.391c-0.73,0.73-1.726,1.194-3.816,1.194h-5.045v-7.8h5.045c2.091,0,3.086,0.466,3.816,1.195
		c0.664,0.697,1.095,1.627,1.095,2.688C31.124,17.73,30.693,18.692,30.029,19.391z"/>
	<polygon fill="#CFD0D6" points="34.69,21.377 38.357,20.798 38.574,20.262 34.912,20.843 	"/>
	<path fill="#CFD0D6" d="M45.662,0.505h-2.324l-8.085,19.517l3.691-0.586l0.009-0.014l10.427-1.658l0.007,0.015l3.219-0.511
		L45.662,0.505z M40.28,16.269L44.5,5.981l3.703,8.894L40.28,16.269z"/>
	<polygon fill="#CFD0D6" points="33.713,23.738 36.299,23.738 37.224,23.592 37.457,23.017 33.77,23.599 	"/>
	<polygon fill="#CFD0D6" points="34.11,22.776 37.79,22.195 38.024,21.619 34.349,22.201 	"/>
	<polygon fill="#CFD0D6" points="86.493,13.189 89.812,12.663 89.812,12.14 86.493,12.667 	"/>
	<path fill="#CFD0D6" d="M155.298,11.686c1.394-1.128,2.289-2.854,2.289-4.78c0-1.925-0.896-3.651-2.289-4.779
		c-1.063-0.863-2.39-1.361-4.514-1.361h-8.131v23.233h3.319V13.047h2.654L156.891,24h4.017l-8.331-11.085
		C153.738,12.715,154.567,12.285,155.298,11.686z M145.972,9.894V3.92h4.646c1.494,0,2.257,0.332,2.788,0.863
		c0.53,0.53,0.863,1.295,0.863,2.124c0,0.83-0.332,1.593-0.863,2.125c-0.53,0.53-1.294,0.863-2.788,0.863L145.972,9.894
		L145.972,9.894z"/>
	<path fill="#CFD0D6" d="M114.054,10.731l-0.08-0.499l0.556-0.089c-0.159-0.865-0.398-1.69-0.708-2.466l-0.537,0.242l-0.207-0.462
		l0.546-0.245c-0.36-0.801-0.793-1.549-1.296-2.231l-0.515,0.419l-0.319-0.393l0.524-0.426c-0.551-0.682-1.172-1.293-1.851-1.825
		l-0.428,0.591l-0.409-0.296l0.433-0.601c-0.709-0.508-1.474-0.934-2.284-1.266l-0.272,0.716l-0.474-0.178l0.274-0.719
		c-0.812-0.292-1.666-0.488-2.545-0.59l-0.079,0.748l-0.504-0.051l0.076-0.741c-0.847-0.059-1.718-0.027-2.601,0.106l0.112,0.703
		l-0.499,0.08l-0.11-0.69c-0.874,0.167-1.706,0.417-2.484,0.753l0.28,0.627l-0.462,0.207l-0.276-0.616
		c-0.789,0.382-1.523,0.843-2.188,1.381l0.406,0.499l-0.392,0.318L95.346,3.25c-0.643,0.572-1.219,1.214-1.715,1.916l0.451,0.325
		L93.785,5.9l-0.438-0.318c-0.457,0.71-0.832,1.475-1.127,2.281l0.416,0.16l-0.18,0.473l-0.408-0.155
		c-0.277,0.875-0.453,1.798-0.525,2.75l3.389-0.538c0.551-3.571,3.127-6.36,6.815-6.95c4.686-0.75,8.791,2.425,9.583,7.373
		c0.797,4.981-2.116,9.247-6.802,9.997c-3.727,0.596-7.075-1.274-8.694-4.567l-3.385,0.535c0.359,0.889,0.815,1.711,1.346,2.463
		l0.378-0.308l0.319,0.393l-0.392,0.319c0.53,0.685,1.123,1.308,1.779,1.849l0.366-0.509l0.41,0.297l-0.375,0.517
		c0.694,0.522,1.442,0.963,2.239,1.312l0.26-0.68l0.473,0.179l-0.266,0.699c0.807,0.311,1.655,0.528,2.534,0.65l0.081-0.787
		l0.504,0.052l-0.083,0.802c0.853,0.078,1.733,0.057,2.627-0.059l-0.131-0.812l0.5-0.079l0.132,0.825
		c0.892-0.153,1.74-0.398,2.535-0.725l-0.353-0.789l0.462-0.208l0.355,0.794c0.814-0.376,1.569-0.839,2.253-1.378l-0.551-0.68
		l0.392-0.318l0.551,0.678c0.669-0.577,1.264-1.231,1.779-1.947l-0.67-0.485l0.297-0.41l0.66,0.478
		c0.476-0.726,0.87-1.511,1.174-2.34l-0.686-0.262l0.181-0.472l0.67,0.256c0.259-0.811,0.433-1.661,0.516-2.54l-0.627-0.064
		l0.052-0.504l0.611,0.063c0.045-0.835,0.007-1.694-0.12-2.566L114.054,10.731z"/>
	<path fill="#CFD0D6" d="M138.274,2.294c-1.128-0.963-2.588-1.527-4.846-1.527h-8.796V24h3.319V13.712h5.476
		c2.257,0,3.718-0.564,4.846-1.527c1.395-1.195,2.29-2.955,2.29-4.945C140.564,5.247,139.669,3.488,138.274,2.294z M136.316,9.53
		c-0.596,0.63-1.46,1.029-3.053,1.029h-5.31V3.92h5.31c1.594,0,2.457,0.398,3.053,1.029c0.564,0.596,0.929,1.394,0.929,2.289
		S136.879,8.932,136.316,9.53z"/>
	<path fill="#CFD0D6" d="M95.313,15.178l-3.312,0.524c0.05,0.174,0.107,0.342,0.163,0.513l3.339-0.529
		C95.437,15.519,95.371,15.352,95.313,15.178z"/>
	<path fill="#CFD0D6" d="M94.989,13.922l-3.285,0.519c0.033,0.176,0.073,0.347,0.111,0.52l3.29-0.519
		C95.064,14.27,95.022,14.098,94.989,13.922z"/>
	<path fill="#CFD0D6" d="M94.818,12.641l-3.287,0.521c0.015,0.175,0.038,0.353,0.06,0.529l3.282-0.519
		C94.853,12.994,94.83,12.816,94.818,12.641z"/>
	<path fill="#CFD0D6" d="M94.826,11.336l-3.343,0.53c-0.002,0.176,0.003,0.353,0.009,0.532l3.316-0.525
		C94.812,11.694,94.814,11.514,94.826,11.336z"/>
	<path fill="#CFD0D6" d="M171.152,0.435c-6.573,0-11.618,5.177-11.618,11.949c0,6.77,5.045,11.949,11.618,11.949
		c6.572,0,11.617-5.179,11.617-11.949C182.769,5.612,177.724,0.435,171.152,0.435z M171.152,21.179
		c-4.746,0-8.298-3.751-8.298-8.796c0-5.012,3.552-8.796,8.298-8.796c4.746,0,8.297,3.784,8.297,8.796
		C179.45,17.428,175.898,21.179,171.152,21.179z"/>
	<polygon fill="#CFD0D6" points="71.715,16.293 68.13,16.861 68.519,17.336 72.104,16.771 	"/>
	<path fill="#CFD0D6" d="M189.938,17.262c0,1.396-0.232,2.092-0.63,2.622c-0.564,0.763-1.593,1.295-2.622,1.295
		c-1.383,0-2.537-0.72-3.073-1.835c-0.564,1.006-1.267,1.911-2.084,2.691c1.206,1.464,3.082,2.297,5.157,2.297
		c2.456,0,4.647-1.361,5.776-3.352c0.531-0.963,0.796-2.125,0.796-3.95V0.767h-3.318L189.938,17.262L189.938,17.262z"/>
	<polygon fill="#CFD0D6" points="199.859,13.047 207.493,13.047 207.493,9.894 199.859,9.894 199.859,3.92 209.815,3.92 
		209.815,0.767 196.54,0.767 196.54,24.001 210.148,24.001 210.148,20.847 199.859,20.847 	"/>
	<polygon fill="#CFD0D6" points="72.754,16.668 76.072,16.144 76.072,15.605 72.754,16.129 	"/>
	<polygon fill="#CFD0D6" points="72.754,17.564 72.661,17.452 69.075,18.018 69.465,18.495 76.072,17.45 76.072,16.913 
		72.754,17.437 	"/>
	<polygon fill="#CFD0D6" points="86.493,11.889 89.812,11.362 89.812,0.505 86.493,0.505 	"/>
	<polygon fill="#CFD0D6" points="70.411,19.653 76.072,18.758 76.072,18.219 70.022,19.176 	"/>
	<polygon fill="#CFD0D6" points="72.754,15.361 76.072,14.835 76.072,14.311 72.754,14.839 	"/>
	<polygon fill="#CFD0D6" points="73.749,23.738 76.072,23.738 76.072,19.527 70.968,20.335 	"/>
	<polygon fill="#CFD0D6" points="86.493,14.496 89.812,13.972 89.812,13.44 86.493,13.965 	"/>
	<polygon fill="#CFD0D6" points="72.754,14.07 76.072,13.543 76.072,0.505 72.754,0.505 	"/>
	<polygon fill="#CFD0D6" points="86.493,15.803 89.812,15.279 89.812,14.747 86.493,15.273 	"/>
	<path fill="#CFD0D6" d="M85.863,19.623c-0.564,0.763-1.594,1.293-2.622,1.293c-1.014,0-1.902-0.389-2.516-1.034l-3.471,0.549
		c1.022,2.287,3.343,3.639,5.988,3.639c2.456,0,4.647-1.361,5.774-3.352c0.47-0.853,0.733-1.864,0.786-3.354l-3.349,0.53
		C86.372,18.719,86.165,19.22,85.863,19.623z"/>
	<path fill="#CFD0D6" d="M86.493,17.001c0,0.039-0.002,0.073-0.002,0.11l3.322-0.525v-0.531l-3.319,0.524V17.001z"/>
	<polygon fill="#CFD0D6" points="230.016,1.096 230.016,4.249 236.322,4.249 236.322,24.329 239.642,24.329 239.642,4.249 
		245.947,4.249 245.947,1.096 	"/>
	<path fill="#CFD0D6" d="M227.88,19.053c-1.343,1.285-3.326,2.455-5.895,2.455c-4.944,0-8.728-3.551-8.728-8.795
		c0-5.011,3.684-8.795,8.43-8.795c2.445,0,4.82,1.09,6.194,2.545V2.471c-1.792-1.086-3.954-1.708-6.194-1.708
		c-6.704,0-11.75,5.244-11.75,11.949c0,6.87,5.112,11.949,12.048,11.949c2.101,0,4.154-0.608,5.895-1.622V19.053z"/>
	<g>
		<polygon fill="#CFD0D6" points="5.704,5.235 5.704,1.723 4.253,1.723 4.253,5.235 1.503,5.235 1.503,0.653 0.053,0.653 
			0.053,6.761 10.742,6.761 10.742,0.5 9.292,0.5 9.292,5.235 		"/>
		<polygon fill="#CFD0D6" points="1.503,23.738 1.503,20.837 10.742,20.837 10.742,19.309 1.503,19.309 1.503,16.407 0.053,16.407 
			0.053,23.738 		"/>
		<polygon fill="#CFD0D6" points="4.295,9.668 4.295,13.762 0.097,13.762 0.097,15.288 10.786,15.288 10.786,13.762 5.747,13.762 
			5.747,9.668 10.786,9.668 10.786,8.142 0.097,8.142 0.097,9.668 		"/>
	</g>
</g>
</svg>
