<?xml version="1.0" encoding="utf-8"?>
<!-- Generator: Adobe Illustrator 19.1.0, SVG Export Plug-In . SVG Version: 6.00 Build 0)  -->
<!DOCTYPE svg PUBLIC "-//W3C//DTD SVG 1.1//EN" "http://www.w3.org/Graphics/SVG/1.1/DTD/svg11.dtd">
<svg version="1.1" id="Layer_1" xmlns="http://www.w3.org/2000/svg" xmlns:xlink="http://www.w3.org/1999/xlink" x="0px" y="0px"
	 viewBox="-290 384 30 26" style="enable-background:new -290 384 30 26;" xml:space="preserve">
<style type="text/css">
	.st0{opacity:0.8;enable-background:new    ;}
	.st1{opacity:0.65;fill:#F2F2F2;enable-background:new    ;}
</style>
<rect x="-290" y="384" class="st0" width="30" height="26"/>
<path class="st1" d="M-267.9,394c0-3.9-3.2-7.1-7.1-7.1s-7.1,3.2-7.1,7.1c0,1.1,0.2,2.1,0.6,2.9l0,0c1.7,4.1,6.4,10.1,6.4,10.1
	s4.7-6.1,6.4-10.1l0,0C-268.2,396-267.9,395-267.9,394z M-275,396.4c-1.3,0-2.4-1.1-2.4-2.4c0-1.3,1.1-2.4,2.4-2.4
	c1.3,0,2.4,1.1,2.4,2.4C-272.6,395.3-273.7,396.4-275,396.4z"/>
</svg>
