<?xml version="1.0" encoding="utf-8"?>
<!-- Generator: Adobe Illustrator 18.1.1, SVG Export Plug-In . SVG Version: 6.00 Build 0)  -->
<!DOCTYPE svg PUBLIC "-//W3C//DTD SVG 1.1//EN" "http://www.w3.org/Graphics/SVG/1.1/DTD/svg11.dtd">
<svg version="1.1" id="Layer_1" xmlns="http://www.w3.org/2000/svg" xmlns:xlink="http://www.w3.org/1999/xlink" x="0px" y="0px"
	 viewBox="0 0 64 64" enable-background="new 0 0 64 64" xml:space="preserve">
<ellipse fill="#444444" fill-opacity="0.58" cx="31.979" cy="54.456" rx="15.551" ry="2.544"/>
<path fill="#444444" d="M32,12.58c-5.04,0-9.127,4.086-9.127,9.127s4.086,9.127,9.127,9.127s9.127-4.086,9.127-9.127
	S37.04,12.58,32,12.58z M32,28.055c-3.506,0-6.349-2.843-6.349-6.349s2.843-6.349,6.349-6.349s6.349,2.843,6.349,6.349
	S35.506,28.055,32,28.055z"/>
<path fill="#444444" d="M50.881,21.638c0-10.439-8.463-18.902-18.902-18.902s-18.902,8.463-18.902,18.902
	c0,2.817,0.621,5.487,1.725,7.889L14.8,29.531c4.587,10.885,17.179,27.137,17.179,27.137s12.592-16.252,17.179-27.137l-0.002-0.004
	C50.26,27.126,50.881,24.456,50.881,21.638z M31.979,29.785c-4.498,0-8.146-3.647-8.146-8.146s3.647-8.146,8.146-8.146
	s8.146,3.647,8.146,8.146S36.479,29.785,31.979,29.785z"/>
<g>
	<g>
		<path fill="#FFB533" d="M49.724,21.706c0-9.789-7.935-17.724-17.724-17.724v0.019v10.066c4.219,0,7.639,3.42,7.639,7.639
			s-3.42,7.639-7.639,7.639V41.43v13.249c0,0,11.806-15.364,16.108-25.571l-0.002-0.004C49.142,26.851,49.724,24.347,49.724,21.706z
			"/>
		
			<linearGradient id="SVGID_1_" gradientUnits="userSpaceOnUse" x1="9.988" y1="14.5657" x2="9.988" y2="60.3998" gradientTransform="matrix(1.1061 0 0 -1.1061 12.0906 70.7891)">
			<stop  offset="0" style="stop-color:#D38B35"/>
			<stop  offset="1" style="stop-color:#FFB533"/>
		</linearGradient>
		<path fill="url(#SVGID_1_)" d="M24.361,21.706c0-4.219,3.42-7.639,7.639-7.639V4.001V3.982c-9.789,0-17.724,7.935-17.724,17.724
			c0,2.641,0.582,5.145,1.618,7.397l-0.002,0.004C20.194,39.315,32,54.678,32,54.678V41.43V29.344
			C27.781,29.344,24.361,25.924,24.361,21.706z"/>
		
			<linearGradient id="SVGID_2_" gradientUnits="userSpaceOnUse" x1="18" y1="34.4488" x2="18" y2="54.3028" gradientTransform="matrix(1.1061 0 0 -1.1061 12.0906 70.7891)">
			<stop  offset="0" style="stop-color:#EAA96E"/>
			<stop  offset="1" style="stop-color:#B87A2C"/>
		</linearGradient>
		<path fill="url(#SVGID_2_)" d="M32,10.726c-6.065,0-10.98,4.917-10.98,10.98s4.917,10.98,10.98,10.98s10.98-4.917,10.98-10.98
			S38.065,10.726,32,10.726z M32,29.344c-4.219,0-7.639-3.42-7.639-7.639s3.42-7.639,7.639-7.639s7.639,3.42,7.639,7.639
			S36.219,29.344,32,29.344z"/>
		
			<linearGradient id="SVGID_3_" gradientUnits="userSpaceOnUse" x1="18" y1="34.4488" x2="18" y2="54.3028" gradientTransform="matrix(1.1061 0 0 -1.1061 12.0906 70.7891)">
			<stop  offset="0" style="stop-color:#EAA96E"/>
			<stop  offset="1" style="stop-color:#B87A2C"/>
		</linearGradient>
		<path fill="url(#SVGID_3_)" d="M32,10.726c-6.065,0-10.98,4.917-10.98,10.98s4.917,10.98,10.98,10.98s10.98-4.917,10.98-10.98
			S38.065,10.726,32,10.726z M32,29.344c-4.219,0-7.639-3.42-7.639-7.639s3.42-7.639,7.639-7.639s7.639,3.42,7.639,7.639
			S36.219,29.344,32,29.344z"/>
	</g>
</g>
</svg>
