<?xml version="1.0" encoding="utf-8"?>
<!-- Generator: Adobe Illustrator 19.1.0, SVG Export Plug-In . SVG Version: 6.00 Build 0)  -->
<!DOCTYPE svg PUBLIC "-//W3C//DTD SVG 1.1//EN" "http://www.w3.org/Graphics/SVG/1.1/DTD/svg11.dtd">
<svg version="1.1" id="Layer_1" xmlns="http://www.w3.org/2000/svg" xmlns:xlink="http://www.w3.org/1999/xlink" x="0px" y="0px"
	 viewBox="-290 384 30 26" style="enable-background:new -290 384 30 26;" xml:space="preserve">
<style type="text/css">
	.st0{opacity:0.8;enable-background:new    ;}
	.st1{opacity:0.65;enable-background:new    ;}
	.st2{fill:#F2F2F2;}
</style>
<rect x="-290" y="384" class="st0" width="30" height="26"/>
<g class="st1">
	<path class="st2" d="M-284,410c0-1.3,0-2.5,0-3.8c0-1.6,0.6-2.9,1.7-4c1-0.9,2.2-1.5,3.5-1.5c2.5,0,5,0,7.5,0
		c2.7,0.1,4.9,2.1,5.1,4.8c0.1,1.3,0.1,2.6,0.1,3.8c0,0.2,0,0.5,0,0.7C-272,410-278,410-284,410z"/>
	<path class="st2" d="M-269.9,394.1c0.1,2.4-1.9,5.1-5.1,5.1c-3.2,0-5.1-2.7-5.1-5.1c0-2.4,1.9-5.1,5.1-5.1
		C-271.7,389-269.8,391.7-269.9,394.1z"/>
</g>
</svg>
