<?xml version="1.0" encoding="utf-8"?>
<!-- Generator: Adobe Illustrator 18.1.1, SVG Export Plug-In . SVG Version: 6.00 Build 0)  -->
<!DOCTYPE svg PUBLIC "-//W3C//DTD SVG 1.1//EN" "http://www.w3.org/Graphics/SVG/1.1/DTD/svg11.dtd">
<svg version="1.1" id="Layer_1" xmlns="http://www.w3.org/2000/svg" xmlns:xlink="http://www.w3.org/1999/xlink" x="0px" y="0px"
	 viewBox="0 0 90 90" enable-background="new 0 0 90 90" xml:space="preserve">
<g>
	<path fill="#FFFFFF" d="M51.72,35.233c0,0.694,0.694,1.19,1.587,1.19v-1.29H51.72V35.233z"/>
	<path fill="#FFFFFF" d="M65.309,35.332v0.099c0,0.794,0.694,1.389,1.587,1.389v-1.488H65.309z"/>
	<path fill="#FFFFFF" d="M24.442,34.936c0,0.496,0.694,0.893,1.587,0.893v-0.992L24.442,34.936z"/>
	<path fill="#FFFFFF" d="M0,0v89.908h89.908V0H0z M21.962,7.757c1.389-0.893,2.877-1.587,4.761-2.182h15.375
		c4.761,1.786,8.332,5.059,10.614,7.539c0.261,0.35,0.496,0.496,0.496,0.694v3.075H21.962V7.757z M21.962,17.974h33.527v0.694v6.15
		H21.962V17.974z M26.029,35.828v30.452h-4.067V34.836v-0.793h4.067c0.893,0,1.686,0.397,1.686,0.893
		C27.715,35.432,26.922,35.828,26.029,35.828z M39.618,36.126v-1.091l-1.587,0.099c0,0.496,0.694,0.992,1.587,1.091v36.106h-4.067
		V35.035v-0.992v-0.099h4.067c0.893,0,1.686,0.496,1.686,1.091C41.305,35.63,40.511,36.126,39.618,36.126z M53.208,36.523v41.76
		h-4.067V35.134v-0.992h4.067c0.893,0,1.686,0.496,1.686,1.19C54.894,35.928,54.1,36.523,53.208,36.523z M66.896,36.82v47.513
		h-4.067V35.332v-1.29h4.067c0.893,0,1.686,0.595,1.686,1.389C68.583,36.225,67.789,36.82,66.896,36.82z M77.411,30.472H21.962
		v-2.976h55.449V30.472z"/>
</g>
</svg>
