<?xml version="1.0" encoding="utf-8"?>
<!-- Generator: Adobe Illustrator 19.1.0, SVG Export Plug-In . SVG Version: 6.00 Build 0)  -->
<!DOCTYPE svg PUBLIC "-//W3C//DTD SVG 1.1//EN" "http://www.w3.org/Graphics/SVG/1.1/DTD/svg11.dtd">
<svg version="1.1" id="Layer_1" xmlns="http://www.w3.org/2000/svg" xmlns:xlink="http://www.w3.org/1999/xlink" x="0px" y="0px"
	 viewBox="-290 384 30 26" style="enable-background:new -290 384 30 26;" xml:space="preserve">
<style type="text/css">
	.st0{opacity:0.8;enable-background:new    ;}
	.st1{opacity:0.65;enable-background:new    ;}
	.st2{fill:#F2F2F2;}
</style>
<g class="st0">
	<rect x="-290" y="384" width="30" height="26"/>
</g>
<g class="st1">
	<path class="st2" d="M-275,407c-5.5,0-10-4.5-10-10c0-5.5,4.5-10,10-10c5.5,0,10,4.5,10,10C-265,402.5-269.5,407-275,407z
		 M-275,389c-4.4,0-8,3.6-8,8c0,4.4,3.6,8,8,8c4.4,0,8-3.6,8-8C-267,392.6-270.6,389-275,389z"/>
</g>
<g class="st1">
	<path class="st2" d="M-275,399.2c-0.1,0-0.2,0-0.3-0.1c-0.3-0.1-0.4-0.4-0.4-0.6v-7.4c0-0.4,0.3-0.7,0.7-0.7s0.7,0.3,0.7,0.7v5.8
		l2.4-2.3c0.3-0.3,0.7-0.2,1,0c0.3,0.3,0.2,0.7,0,1l-3.6,3.4C-274.7,399.2-274.8,399.2-275,399.2z"/>
</g>
</svg>
